<svg xmlns="http://www.w3.org/2000/svg" width="56" height="56" viewBox="0 0 56 56">
    <defs>
        <linearGradient id="prefix__a" x1="0%" x2="100%" y1="27.348%" y2="72.652%">
            <stop offset="0%" stop-color="#9BD0F2"/>
            <stop offset="100%" stop-color="#62A3E1"/>
        </linearGradient>
        <linearGradient id="prefix__b" x1="100%" x2="0%" y1="0%" y2="100%">
            <stop offset="0%" stop-color="#DCE8F2"/>
            <stop offset="100%" stop-color="#B7CDE1"/>
        </linearGradient>
    </defs>
    <g fill="none" fill-rule="evenodd">
        <path fill="#FFF" fill-opacity="0" fill-rule="nonzero" d="M0 0H56V56H0z"/>
        <g transform="translate(2.8 6.3)">
            <path fill="#376BA8" d="M41.237 43.4L8.463 43.4 4.2 41.3 45.5 41.3z"/>
            <rect width="50.4" height="4.9" y="36.4" fill="#4D8DD8" rx="2.45"/>
            <path fill="#225FA6" d="M47.6 36.4H2.8V5.6c0-1.16.936-2.1 2.092-2.1h40.616c1.155 0 2.092.94 2.092 2.1v30.8z"/>
            <path fill="#13315F" d="M45.508 3.5H4.892C3.736 3.5 2.8 4.545 2.8 5.833V7c0-1.288.936-2.333 2.092-2.333h40.616C46.663 4.667 47.6 5.712 47.6 7V5.833c0-1.288-.937-2.333-2.092-2.333" opacity=".34"/>
            <path fill="url(#prefix__a)" d="M7 32.2L43.4 32.2 43.4 7.7 7 7.7z"/>
            <path fill="#70D7D9" d="M29.913 39.2h-8.725c-.491 0-.888-.314-.888-.7 0-.386.397-.7.888-.7h8.725c.49 0 .887.314.887.7 0 .386-.397.7-.887.7"/>
            <g>
                <path fill="url(#prefix__b)" d="M0 32.2L28 32.2 28 4.2 0 4.2z" transform="translate(11.2)"/>
                <path fill="#2F63A0" d="M28 4.2H0V2.002C0 .896.953 0 2.127 0h23.746C27.047 0 28 .896 28 2.002V4.2z" transform="translate(11.2)"/>
                <path fill="#20C0C2" d="M3.08 1.4c.542 0 .981.439.981.98 0 .544-.438.982-.98.982S2.1 2.924 2.1 2.381c0-.542.439-.981.98-.981zm3.18 0c.542 0 .981.439.981.98 0 .544-.439.982-.98.982-.542 0-.981-.438-.981-.981 0-.542.439-.981.98-.981zm3.18 0c.542 0 .98.439.98.98 0 .544-.438.982-.98.982s-.98-.438-.98-.981c0-.542.438-.981.98-.981z" transform="translate(11.2)"/>
                <path fill="#F2F2F2" d="M2.8 19.6L25.2 19.6 25.2 6.3 2.8 6.3zM2.8 29.4L18.2 29.4 18.2 27.3 2.8 27.3zM2.8 25.2L25.2 25.2 25.2 23.1 2.8 23.1z" transform="translate(11.2)"/>
            </g>
            <path fill="#20C0C2" d="M28.183 9.8L28.183 10.85 29.658 10.85 26.771 13.736 23.999 10.963 19.6 15.362 20.343 16.105 23.999 12.448 26.771 15.221 30.4 11.593 30.4 13.068 31.45 13.068 31.45 9.8z"/>
        </g>
    </g>
</svg>
