<svg xmlns="http://www.w3.org/2000/svg" width="80" height="80" viewBox="0 0 80 80">
    <defs>
        <linearGradient id="prefix__a" x1="80.624%" x2="19.376%" y1="0%" y2="100%">
            <stop offset="0%" stop-color="#DCE8F2"/>
            <stop offset="100%" stop-color="#B7CDE1"/>
        </linearGradient>
    </defs>
    <g fill="none" fill-rule="evenodd">
        <path fill="#FFF" fill-opacity="0" fill-rule="nonzero" d="M0 0H80V80H0z"/>
        <g>
            <path fill="#457DBE" d="M45.303 22.652c0 12.51-10.142 22.651-22.651 22.651C10.14 45.303 0 35.163 0 22.652S10.14 0 22.652 0c12.51 0 22.651 10.14 22.651 22.652" transform="translate(6.429 6.429)"/>
            <path fill="#2F63A0" d="M42.067 22.652c0 10.724-8.693 19.415-19.415 19.415-10.724 0-19.416-8.691-19.416-19.415 0-10.723 8.692-19.416 19.416-19.416 10.722 0 19.415 8.693 19.415 19.416" transform="translate(6.429 6.429)"/>
            <path fill="#FFF" d="M30.202 26.687c-.315 2.261-1.146 3.95-2.494 5.071-1.348 1.12-3.04 1.68-5.078 1.68-2.353 0-4.185-.76-5.498-2.277-1.312-1.52-2.136-3.43-2.47-5.732h-1.718v-1.887h1.534c-.019-.195-.03-.486-.03-.874 0-.48.011-.82.03-1.013h-1.534v-1.872h1.687c.365-2.598 1.34-4.568 2.927-5.906 1.587-1.341 3.257-2.012 5.01-2.012 2.06 0 3.762.564 5.11 1.689 1.348 1.125 2.19 2.726 2.524 4.801l-3.482.384c-.486-2.659-1.86-3.989-4.121-3.989-.953 0-1.834.409-2.646 1.228-.81.818-1.329 2.087-1.55 3.805h4.698v1.872h-4.866l-.031.951.031.936h4.866v1.887h-4.698c.263 1.739.832 3.008 1.711 3.804.876.799 1.812 1.197 2.804 1.197.974 0 1.823-.388 2.547-1.165.725-.777 1.143-1.76 1.255-2.946l3.482.368z" transform="translate(6.429 6.429)"/>
            <path fill="#7DD9DC" d="M67.955 45.303c0 12.511-10.14 22.652-22.652 22.652-12.51 0-22.651-10.14-22.651-22.652 0-12.51 10.14-22.651 22.651-22.651s22.652 10.14 22.652 22.651" transform="translate(6.429 6.429)"/>
            <path fill="#20C0C2" d="M64.72 45.304c0 10.722-8.694 19.415-19.417 19.415-10.721 0-19.415-8.693-19.415-19.415s8.694-19.416 19.415-19.416c10.723 0 19.416 8.694 19.416 19.416" transform="translate(6.429 6.429)"/>
            <path fill="#FFF" d="M46.813 47.854v4.016c1.562-.3 2.298-1.169 2.298-2.128 0-.988-.95-1.47-2.298-1.888zm-2.88-5.303v-3.626c-1.347.177-2.112.898-2.112 1.919 0 .867.856 1.318 2.112 1.707zm0 13.125c-3.216-.271-5.575-1.469-7.259-3.116l2.39-3.327c1.132 1.168 2.819 2.218 4.869 2.579v-4.647c-3.155-.749-6.587-1.917-6.587-5.992 0-3.03 2.45-5.605 6.587-6.024v-2.79h2.88v2.85c2.482.268 4.596 1.168 6.251 2.667l-2.421 3.176c-1.104-.99-2.452-1.619-3.83-1.95v4.136c3.186.78 6.74 1.98 6.74 6.084 0 3.326-2.237 5.905-6.74 6.354v2.698h-2.88v-2.698z" transform="translate(6.429 6.429)"/>
            <path fill="url(#prefix__a)" d="M63.589 17.864c.6-7.316-3.85-14.415-11.231-16.963-1.6-.552-3.252-.84-4.897-.901v3.636c1.235.06 2.471.262 3.673.676 5.89 2.033 9.379 7.775 8.734 13.617l-3.436.062 5.35 6.818 5.094-7.004-3.287.059zM5.445 50.092c-.6 7.315 3.85 14.414 11.23 16.962 1.602.552 3.253.84 4.898.901V64.32c-1.234-.06-2.472-.262-3.672-.676-5.892-2.033-9.38-7.775-8.735-13.617l3.436-.062-5.35-6.818-5.095 7.004 3.288-.058z" transform="translate(6.429 6.429)"/>
        </g>
    </g>
</svg>
