<?xml version="1.0" encoding="UTF-8"?>
<svg width="128px" height="128px" viewBox="0 0 128 128" version="1.1" xmlns="http://www.w3.org/2000/svg" xmlns:xlink="http://www.w3.org/1999/xlink">
    <!-- Generator: Sketch 63.1 (92452) - https://sketch.com -->
    <title>Icon/128/FX_Trader_Gercek_V2</title>
    <desc>Created with Sketch.</desc>
    <defs>
        <linearGradient x1="100%" y1="27.3483728%" x2="0%" y2="72.6516272%" id="linearGradient-1">
            <stop stop-color="#DCE8F2" offset="0%"></stop>
            <stop stop-color="#B7CDE1" offset="100%"></stop>
        </linearGradient>
    </defs>
    <g id="Icon/128/FX_Trader_Gercek_V2" stroke="none" stroke-width="1" fill="none" fill-rule="evenodd">
        <polygon id="Fill-4" fill="#376BA8" points="99.2007836 108.8 24.2901254 108.8 14.5454545 104 108.945455 104"></polygon>
        <rect id="Rectangle" fill="#4D8DD8" x="4.94545455" y="92.8" width="115.2" height="11.2" rx="5.6"></rect>
        <path d="M113.745455,92.8 L11.3454545,92.8 L11.3454545,22.3979073 C11.3454545,19.7494625 13.4853131,17.6 16.1272613,17.6 L108.963648,17.6 C111.603205,17.6 113.745455,19.7494625 113.745455,22.3979073 L113.745455,92.8 Z" id="Fill-6" fill="#225FA6"></path>
        <path d="M108.963648,17.6 L16.1272613,17.6 C13.4853131,17.6 11.3454545,19.9893333 11.3454545,22.9333333 L11.3454545,25.6 C11.3454545,22.656 13.4853131,20.2666667 16.1272613,20.2666667 L108.963648,20.2666667 C111.603205,20.2666667 113.745455,22.656 113.745455,25.6 L113.745455,22.9333333 C113.745455,19.9893333 111.603205,17.6 108.963648,17.6" id="Fill-9" fill="#13315F" opacity="0.340000004"></path>
        <polygon id="Fill-11" fill="url(#linearGradient-1)" points="20.9454545 83.2 104.145455 83.2 104.145455 27.2 20.9454545 27.2"></polygon>
        <polygon id="Fill-11" fill="#FFFFFF" opacity="0.449999988" points="20.9454545 83.2 104.145455 27.2 20.9454545 27.2"></polygon>
        <path d="M73.3184193,99.2 L53.3749291,99.2 C52.2528638,99.2 51.3454545,98.4826923 51.3454545,97.6 C51.3454545,96.7173077 52.2528638,96 53.3749291,96 L73.3184193,96 C74.4380453,96 75.3454545,96.7173077 75.3454545,97.6 C75.3454545,98.4826923 74.4380453,99.2 73.3184193,99.2" id="Fill-14" fill="#70D7D9"></path>
        <path d="M70,72.0558373 L70,74.9709111 L29,74.9709111 L29,72.0558373 L70,72.0558373 Z M64,66.0837559 L64,69 L29,69 L29,66.0837559 L64,66.0837559 Z M58,60.0558373 L58,62.9709111 L29,62.9709111 L29,60.0558373 L58,60.0558373 Z M53,54.0837559 L53,57 L29,57 L29,54.0837559 L53,54.0837559 Z M53,48.0558373 L53,50.9709111 L29,50.9709111 L29,48.0558373 L53,48.0558373 Z M53,42.0279186 L53,44.9441627 L29,44.9441627 L29,42.0279186 L53,42.0279186 Z" id="Combined-Shape" fill="#82BCEB"></path>
        <path d="M80,34 L80,51 L97,51 C97,41.6117046 89.3882954,34 80,34" id="Fill-16" fill="#225FA6"></path>
        <path d="M80,51 L92.0176498,63 C95.0931259,59.9290407 97,55.6833114 97,51 L80,51 Z" id="Fill-17" fill="#4D8DD8"></path>
        <path d="M92,63.0215978 C88.9228676,66.0931259 84.678003,68 79.9873487,68 C75.2966943,68 71.0478846,66.0931259 67.9707523,63.0215978 C64.90151,59.9421737 63,55.6941477 63,51 C63,41.6117046 70.60604,34 79.9873487,34 L79.9873487,51 L92,63.0215978 Z" id="Fill-18" fill="#20C0C2"></path>
        <polygon id="Fill-12" fill="#4D8DD8" points="29 38.9162441 53 38.9162441 53 36 29 36"></polygon>
    </g>
</svg>