<?xml version="1.0" encoding="UTF-8"?>
<svg width="128px" height="128px" viewBox="0 0 128 128" version="1.1" xmlns="http://www.w3.org/2000/svg" xmlns:xlink="http://www.w3.org/1999/xlink">
    <!-- Generator: Sketch 63.1 (92452) - https://sketch.com -->
    <title>Icon/128/FX_Trader_Demo_V3</title>
    <desc>Created with Sketch.</desc>
    <defs>
        <linearGradient x1="100%" y1="27.3483728%" x2="0%" y2="72.6516272%" id="linearGradient-1">
            <stop stop-color="#DCE8F2" offset="0%"></stop>
            <stop stop-color="#B7CDE1" offset="100%"></stop>
        </linearGradient>
        <linearGradient x1="0%" y1="-71.8502604%" x2="95.0365149%" y2="100%" id="linearGradient-2">
            <stop stop-color="#1CACAE" offset="0%"></stop>
            <stop stop-color="#20C0C2" offset="100%"></stop>
        </linearGradient>
    </defs>
    <g id="Icon/128/FX_Trader_Demo_V3" stroke="none" stroke-width="1" fill="none" fill-rule="evenodd">
        <polygon id="Fill-4" fill="#376BA8" points="99.2007836 108.8 24.2901254 108.8 14.5454545 104 108.945455 104"></polygon>
        <rect id="Rectangle" fill="#4D8DD8" x="4.94545455" y="92.8" width="115.2" height="11.2" rx="5.6"></rect>
        <path d="M113.745455,92.8 L11.3454545,92.8 L11.3454545,22.3979073 C11.3454545,19.7494625 13.4853131,17.6 16.1272613,17.6 L108.963648,17.6 C111.603205,17.6 113.745455,19.7494625 113.745455,22.3979073 L113.745455,92.8 Z" id="Fill-6" fill="#225FA6"></path>
        <path d="M108.963648,17.6 L16.1272613,17.6 C13.4853131,17.6 11.3454545,19.9893333 11.3454545,22.9333333 L11.3454545,25.6 C11.3454545,22.656 13.4853131,20.2666667 16.1272613,20.2666667 L108.963648,20.2666667 C111.603205,20.2666667 113.745455,22.656 113.745455,25.6 L113.745455,22.9333333 C113.745455,19.9893333 111.603205,17.6 108.963648,17.6" id="Fill-9" fill="#13315F" opacity="0.340000004"></path>
        <polygon id="Fill-11" fill="url(#linearGradient-1)" points="20.9454545 83.2 104.145455 83.2 104.145455 27.2 20.9454545 27.2"></polygon>
        <polygon id="Fill-11" fill="#FFFFFF" opacity="0.449999988" points="20.9454545 83.2 104.145455 27.2 20.9454545 27.2"></polygon>
        <path d="M73.3184193,99.2 L53.3749291,99.2 C52.2528638,99.2 51.3454545,98.4826923 51.3454545,97.6 C51.3454545,96.7173077 52.2528638,96 53.3749291,96 L73.3184193,96 C74.4380453,96 75.3454545,96.7173077 75.3454545,97.6 C75.3454545,98.4826923 74.4380453,99.2 73.3184193,99.2" id="Fill-14" fill="#70D7D9"></path>
        <polygon id="Fill-5" fill="#1CACAE" points="97 47.8819883 90.977485 58 81 52.1180117 87.022515 42"></polygon>
        <path d="M86.15685,48.5130932 C78.4161792,61.5789123 61.5504952,65.8972445 48.486587,58.154676 C35.4208005,50.4158641 31.1043575,33.5520165 38.84315,20.4861973 C46.5838208,7.42225653 63.4476264,3.10392441 76.513413,10.8427362 C89.5791995,18.5834264 93.8956425,35.4491524 86.15685,48.5130932 Z" id="Fill-7" fill="#DFE9F1"></path>
        <path d="M42.0518392,22.6138337 C35.1904557,34.1953791 39.0313903,49.1990894 50.6129358,56.058578 C62.1944812,62.9199615 77.1981915,59.0809217 84.059575,47.4993763 C90.9209585,35.9178308 87.0819187,20.9141206 75.4984784,14.0508422 C63.9169329,7.18945868 48.9132227,11.0322882 42.0518392,22.6138337 M89.7802369,50.8874331 C81.0504954,65.6239644 61.9595153,70.5089814 47.2229841,61.7811348 C32.4864528,53.0494984 27.6014358,33.9604132 36.3311773,19.2257769 C45.0609187,4.48924561 64.1518988,-0.399561209 78.8865352,8.33018027 C93.6230665,17.0599217 98.5099784,36.1527967 89.7802369,50.8874331" id="Fill-14" fill="url(#linearGradient-2)"></path>
        <path d="M105.996929,73.4141212 C97.5198103,68.2174143 90,59.745569 90,59.745569 L98.0326541,46 C98.0326541,46 108.973323,48.6147195 117.543513,53.6554675 C122.909379,56.8112298 124.563776,63.9083257 121.401238,69.3168287 C118.238701,74.7291826 111.305812,76.6661545 105.996929,73.4141212" id="Fill-15" fill="#1FB7B9"></path>
        <path d="M105,48.0207776 L95.0213261,65 C91.9697557,62.1525406 90,59.9675993 90,59.9675993 L98.208608,46 C98.208608,46 101.054672,46.691833 105,48.0207776" id="Fill-16" fill="#000000" opacity="0.100000001"></path>
        <path d="M100.636921,47.1035974 L91.8298212,62.6679515 C91.0986657,63.9590218 89.5071101,64.3842245 88.2737469,63.6207923 C87.0385373,62.8534946 86.6323398,61.1894055 87.3634952,59.8964026 L96.1705952,44.3320485 C96.9017507,43.0409782 98.4933063,42.6157755 99.7266696,43.3792077 C100.960033,44.1465054 101.368077,45.8125272 100.636921,47.1035974" id="Fill-17" fill="#20C0C2"></path>
        <path d="M70.0201667,33.9316667 L70.0201667,46.268 L65,46.268 L65,33.9316667 L70.0201667,33.9316667 Z M61.018,29.0841667 L61.018,46.268 L56,46.268 L56,29.0841667 L61.018,29.0841667 Z M52.0766667,38.3385 L52.0766667,46.268 L47.0565,46.268 L47.0565,38.3385 L52.0766667,38.3385 Z M79.0201667,23.2058333 L79.0201667,46.268 L74,46.268 L74,23.2058333 L79.0201667,23.2058333 Z" id="Combined-Shape" fill="#1CACAE"></path>
    </g>
</svg>