<svg xmlns="http://www.w3.org/2000/svg" width="56" height="56" viewBox="0 0 56 56">
    <defs>
        <linearGradient id="prefix__a" x1="78.945%" x2="21.055%" y1="0%" y2="100%">
            <stop offset="0%" stop-color="#DCE8F2"/>
            <stop offset="100%" stop-color="#B7CDE1"/>
        </linearGradient>
        <linearGradient id="prefix__b" x1="0%" x2="100%" y1="19.808%" y2="80.192%">
            <stop offset="0%" stop-color="#9BD0F2"/>
            <stop offset="100%" stop-color="#62A3E1"/>
        </linearGradient>
    </defs>
    <g fill="none" fill-rule="evenodd">
        <path fill="#FFF" fill-opacity="0" fill-rule="nonzero" d="M0 0H56V56H0z"/>
        <path fill="url(#prefix__a)" d="M43.223 50.75H12.396c-1.047 0-1.896-.85-1.896-1.896V7.146c0-1.048.849-1.896 1.896-1.896h30.827c1.047 0 1.896.848 1.896 1.896v41.708c0 1.047-.85 1.896-1.896 1.896"/>
        <path fill="url(#prefix__b)" d="M14.292 46.959L41.327 46.959 41.327 25.951 14.292 25.951z"/>
        <path fill="#FFF" d="M14.292 22.227L41.327 22.227 41.327 9.043 14.292 9.043z"/>
        <path fill="#66C6B9" d="M37.336 11.345v8.897H35.14v-8.897h2.196zm-4.214 1.38v7.517h-2.195v-7.518h2.195zm-4.213 1.423v6.094h-2.197v-6.094h2.197zm-4.215-3.12v9.214h-2.196v-9.214h2.196zm-4.215 4.677v4.536h-2.197v-4.536h2.197z"/>
        <path fill="#FFF" d="M39.955 42.598v2.362h-24.29v-2.362h24.29zm0-4.883v2.361h-24.29v-2.36h24.29zm-12.526-4.883v2.363H15.664v-2.363H27.43zm0-4.882v2.362H15.664V27.95H27.43z"/>
        <path fill="#4D8DD8" d="M35.873 27.95v4.083h4.082c0-2.255-1.827-4.082-4.082-4.082"/>
        <path fill="#20C0C2" d="M35.873 32.032l2.886 2.886c.738-.739 1.196-1.76 1.196-2.886h-4.082z"/>
        <path fill="#225FA6" d="M38.76 34.918c-.74.737-1.76 1.195-2.887 1.195s-2.148-.458-2.887-1.195c-.738-.74-1.194-1.76-1.194-2.887 0-2.254 1.827-4.081 4.081-4.081v4.081l2.887 2.887z"/>
    </g>
</svg>
