<svg xmlns="http://www.w3.org/2000/svg" width="128" height="128" viewBox="0 0 128 128">
    <defs>
        <linearGradient id="prefix__a" x1="27.221%" x2="82.309%" y1="0%" y2="88.176%">
            <stop offset="0%" stop-color="#DCE8F2"/>
            <stop offset="100%" stop-color="#B7CDE1"/>
        </linearGradient>
    </defs>
    <g fill="none" fill-rule="evenodd">
        <path fill="#FFF" fill-opacity="0" fill-rule="nonzero" d="M0 0H128V128H0z"/>
        <g>
            <path fill="url(#prefix__a)" d="M99.8 49.9c0 27.559-22.341 49.9-49.9 49.9C22.34 99.8 0 77.458 0 49.9 0 22.34 22.34 0 49.9 0c27.559 0 49.9 22.34 49.9 49.9" transform="translate(13.486 7.086)"/>
            <path fill="#20C0C2" d="M28.353 50.495c6.724 2.352 11.58 9.31 18.687 9.923 2.187.183 4.888-.033 6.015 1.84.728 1.227.364 2.865-.432 4.059-.795 1.191-1.938 2.104-2.9 3.148-5.418 5.947-4.771 16.202-11.182 21.057-1.11.828-2.487 1.589-2.817 2.949-.131.58-.05 1.193.05 1.788l.397 2.62c-2.005-.566-3.96-1.262-5.85-2.071-1.108-2.071-2.482-4.044-2.948-6.346-.644-3.215.53-6.594-.23-9.76-1.327-5.581-7.937-8.449-9.875-13.85-1.258-3.53-.25-7.505 1.44-10.85 1.011-2.022 2.436-4.062 4.59-4.806 1.624-.547 3.43-.264 5.055.3zM54.644.23c25.233 2.366 44.997 23.542 45.163 49.353-.977 1.474-2.07 2.85-3.031 4.325-3.762 5.75-5.303 12.623-7.573 19.103-.611 1.771-2.146 4.842-3.676 3.728-4.943-3.602-.25-13.106-3.645-18.592-1.227-1.952-2.768-3.809-4.856-4.77-4.059-1.87-9.011.1-13.253-1.31-3.729-1.24-6.263-5.102-6.413-9.028-.164-3.926 1.84-7.754 4.839-10.305 2.784-2.368 6.693-3.712 10.174-2.585 1.324.43 2.518 1.177 3.859 1.574 3.412 1.011 7.007-.48 10.255-1.938 1.391-.613 3.065-1.757 2.685-3.247-.283-1.077-1.525-1.574-2.635-1.69-2.137-.215-4.258.398-6.396.662-2.12.267-4.506.1-6.063-1.374-.928-.878-1.888-2.287-3.098-1.857-.514.183-.845.663-1.227 1.06-1.921 2.024-5.134 1.84-7.902 1.508-.413-.05-.877-.114-1.177-.43-.644-.68.017-1.755.664-2.435 1.805-1.905 3.661-3.81 4.886-6.13l.038-.07c1.676-3.224-.701-7.05-4.325-7.308-1.994-.139-3.88-.669-5.355-1.998C54.892 4.95 54.164 2.45 54.644.23zM37.431 1.572c.463 1.258.944 2.502 1.357 3.76.98 2.981 1.493 6.327.25 9.211-1.757 4.028-6.313 5.916-9.444 9.012-2.17 2.137-3.643 4.888-5.086 7.573l-.43.796c-1.698 3.148-5.38 4.354-8.805 3.331-.582-.175-1.187-.274-1.798-.285-2.768-.03-5.55 1.988-6.016 4.722-.098.614-.098 1.277.15 1.855.497 1.21 1.873 1.857 3.181 1.874h.04c2.31-.019 4.42 1.274 5.107 3.483.01.035.02.072.033.108.846 2.722-2.337 4.93-4.57 3.164-2.92-2.308-5.193-5.504-6.507-9.01-1.093-2.917-1.576-6.013-1.576-9.128v-.016c5.716-14.928 18.425-26.41 34.114-30.45z" transform="translate(13.486 7.086)"/>
        </g>
        <g>
            <path fill="#0067A6" d="M52.328 69.807H2.783C1.245 69.807 0 68.504 0 66.9V2.909C0 1.302 1.245 0 2.783 0h49.545c1.536 0 2.783 1.302 2.783 2.909v63.99c0 1.605-1.247 2.908-2.783 2.908" transform="translate(64.914 51.657)"/>
            <path fill="#01A8E7" d="M3.674 60.622L51.437 60.622 51.437 5.511 3.674 5.511z" transform="translate(64.914 51.657)"/>
            <path fill="#70D7D9" d="M28.473 62.46c1.523 0 2.756 1.234 2.756 2.755 0 1.522-1.233 2.755-2.756 2.755-1.52 0-2.755-1.233-2.755-2.755 0-1.521 1.235-2.756 2.755-2.756zm5.608-60.623c.455 0 .822.411.822.918 0 .508-.367.92-.822.92h-13.05c-.455 0-.824-.412-.824-.92 0-.507.37-.918.824-.918h13.05z" transform="translate(64.914 51.657)"/>
        </g>
    </g>
</svg>
