<svg xmlns="http://www.w3.org/2000/svg" width="56" height="56" viewBox="0 0 56 56">
    <defs>
        <linearGradient id="prefix__a" x1="27.221%" x2="82.309%" y1="0%" y2="88.176%">
            <stop offset="0%" stop-color="#DCE8F2"/>
            <stop offset="100%" stop-color="#B7CDE1"/>
        </linearGradient>
    </defs>
    <g fill="none" fill-rule="evenodd">
        <path fill="#FFF" fill-opacity="0" fill-rule="nonzero" d="M0 0H56V56H0z"/>
        <g>
            <path fill="url(#prefix__a)" d="M43.662 21.831c0 12.057-9.774 21.831-21.83 21.831C9.773 43.662 0 33.888 0 21.832 0 9.773 9.774 0 21.831 0s21.831 9.774 21.831 21.831" transform="translate(5.9 3.1)"/>
            <path fill="#20C0C2" d="M12.404 22.092c2.942 1.029 5.066 4.072 8.176 4.34.957.08 2.139-.014 2.632.806.318.537.159 1.253-.19 1.776-.347.52-.847.92-1.268 1.377-2.37 2.602-2.088 7.088-4.892 9.213-.486.362-1.088.695-1.233 1.29-.057.253-.022.522.022.782l.174 1.146c-.877-.247-1.732-.552-2.56-.906-.484-.906-1.085-1.77-1.29-2.776-.281-1.407.233-2.885-.1-4.27-.58-2.442-3.473-3.697-4.32-6.06-.55-1.544-.11-3.283.63-4.747.442-.884 1.065-1.777 2.008-2.102.71-.24 1.5-.116 2.211.13zM23.907.1c11.04 1.035 19.686 10.3 19.759 21.591-.428.645-.906 1.248-1.327 1.893-1.645 2.515-2.32 5.522-3.313 8.357-.267.775-.939 2.119-1.608 1.631-2.162-1.575-.11-5.734-1.595-8.133-.537-.855-1.21-1.667-2.124-2.087-1.776-.82-3.943.043-5.798-.573-1.632-.544-2.74-2.233-2.806-3.95-.072-1.718.805-3.393 2.117-4.509 1.218-1.036 2.928-1.624 4.451-1.13.58.188 1.102.514 1.689.688 1.492.442 3.065-.21 4.486-.848.609-.268 1.341-.769 1.175-1.42-.124-.472-.667-.69-1.153-.74-.935-.094-1.863.174-2.798.29-.928.116-1.972.043-2.653-.602-.406-.383-.826-1-1.355-.812-.225.08-.37.29-.537.464-.84.885-2.246.805-3.457.66-.181-.022-.384-.05-.515-.189-.282-.297.007-.767.29-1.065.79-.833 1.602-1.667 2.138-2.682l.016-.03c.734-1.41-.306-3.085-1.892-3.197-.872-.061-1.697-.293-2.342-.875-.74-.667-1.058-1.762-.848-2.732zm-7.531.587c.203.55.413 1.094.594 1.645.428 1.304.653 2.768.11 4.03-.77 1.762-2.763 2.588-4.133 3.942-.949.935-1.594 2.139-2.225 3.313l-.188.349c-.743 1.377-2.354 1.905-3.852 1.457-.255-.076-.52-.12-.787-.124-1.21-.014-2.428.87-2.632 2.065-.042.269-.042.559.066.812.217.53.82.812 1.392.82h.017c1.01-.009 1.934.557 2.234 1.523l.015.048c.37 1.19-1.023 2.157-2 1.384-1.277-1.01-2.271-2.408-2.846-3.942-.479-1.276-.69-2.63-.69-3.993v-.007C3.952 7.479 9.512 2.455 16.376.688z" transform="translate(5.9 3.1)"/>
        </g>
        <g>
            <path fill="#0067A6" d="M22.894 30.54H1.217C.545 30.54 0 29.97 0 29.269V1.273C0 .569.545 0 1.217 0h21.677c.672 0 1.217.57 1.217 1.273v27.995c0 .703-.545 1.273-1.217 1.273" transform="translate(28.4 22.6)"/>
            <path fill="#01A8E7" d="M1.607 26.522L22.504 26.522 22.504 2.411 1.607 2.411z" transform="translate(28.4 22.6)"/>
            <path fill="#70D7D9" d="M12.457 27.326c.666 0 1.206.54 1.206 1.205 0 .667-.54 1.206-1.206 1.206-.665 0-1.205-.54-1.205-1.206 0-.665.54-1.205 1.205-1.205zM14.91.804c.198 0 .36.18.36.401 0 .222-.162.402-.36.402H9.2c-.199 0-.36-.18-.36-.402 0-.221.161-.401.36-.401h5.71z" transform="translate(28.4 22.6)"/>
        </g>
    </g>
</svg>
