<svg xmlns="http://www.w3.org/2000/svg" width="80" height="80" viewBox="0 0 80 80">
    <defs>
        <linearGradient id="prefix__a" x1="27.221%" x2="82.309%" y1="0%" y2="88.176%">
            <stop offset="0%" stop-color="#DCE8F2"/>
            <stop offset="100%" stop-color="#B7CDE1"/>
        </linearGradient>
    </defs>
    <g fill="none" fill-rule="evenodd">
        <path fill="#FFF" fill-opacity="0" fill-rule="nonzero" d="M0 0H80V80H0z"/>
        <g>
            <path fill="url(#prefix__a)" d="M62.375 31.187c0 17.225-13.963 31.188-31.188 31.188C13.963 62.375 0 48.412 0 31.187 0 13.963 13.963 0 31.187 0c17.225 0 31.188 13.963 31.188 31.187" transform="translate(8.429 4.429)"/>
            <path fill="#20C0C2" d="M17.72 31.56c4.203 1.47 7.238 5.818 11.68 6.201 1.367.115 3.055-.02 3.76 1.15.454.767.227 1.791-.27 2.537-.497.745-1.212 1.315-1.813 1.968-3.386 3.716-2.982 10.126-6.989 13.16-.694.518-1.554.993-1.76 1.843-.082.363-.032.746.03 1.118l.249 1.637c-1.253-.353-2.475-.788-3.656-1.294-.693-1.294-1.552-2.528-1.843-3.966-.403-2.01.332-4.121-.144-6.1-.83-3.489-4.96-5.28-6.172-8.657-.786-2.205-.156-4.69.901-6.781.632-1.263 1.522-2.538 2.868-3.004 1.015-.341 2.144-.165 3.16.188zM34.153.144c15.77 1.479 28.123 14.714 28.227 30.845-.611.922-1.295 1.782-1.895 2.703-2.351 3.594-3.314 7.89-4.733 11.94-.382 1.107-1.341 3.026-2.298 2.33-3.089-2.251-.156-8.192-2.278-11.62-.767-1.22-1.73-2.38-3.035-2.981-2.536-1.17-5.632.062-8.283-.819-2.33-.776-3.914-3.189-4.008-5.643-.103-2.453 1.15-4.846 3.024-6.44 1.74-1.48 4.183-2.32 6.359-1.616.828.27 1.574.736 2.412.984 2.133.632 4.38-.3 6.41-1.211.869-.383 1.915-1.098 1.677-2.03-.176-.673-.952-.984-1.646-1.057-1.336-.133-2.662.25-3.998.415-1.325.166-2.816.062-3.79-.859-.579-.548-1.18-1.43-1.936-1.16-.32.114-.527.414-.766.662-1.201 1.265-3.21 1.15-4.939.942-.258-.03-.548-.071-.735-.269-.403-.425.01-1.096.414-1.521 1.128-1.19 2.289-2.381 3.054-3.832l.024-.044c1.047-2.014-.438-4.405-2.704-4.566-1.246-.088-2.425-.419-3.346-1.25-1.057-.953-1.511-2.517-1.211-3.903zM23.394.983c.29.786.59 1.563.849 2.35.612 1.863.933 3.954.156 5.756-1.098 2.518-3.946 3.698-5.903 5.633-1.355 1.336-2.277 3.055-3.179 4.733l-.269.498c-1.06 1.967-3.362 2.72-5.502 2.081-.364-.109-.742-.171-1.124-.178-1.73-.02-3.469 1.243-3.76 2.952-.061.383-.061.798.094 1.159.31.756 1.17 1.16 1.988 1.17h.025c1.443-.01 2.762.798 3.191 2.178l.021.067c.53 1.701-1.46 3.082-2.856 1.978-1.825-1.442-3.245-3.44-4.067-5.63-.683-1.824-.985-3.76-.985-5.706v-.01C5.646 10.684 13.59 3.508 23.394.983z" transform="translate(8.429 4.429)"/>
        </g>
        <g>
            <path fill="#0067A6" d="M32.705 43.63H1.74C.78 43.63 0 42.815 0 41.812V1.818C0 .814.778 0 1.74 0h30.965c.96 0 1.74.814 1.74 1.818v39.994c0 1.003-.78 1.818-1.74 1.818" transform="translate(40.571 32.286)"/>
            <path fill="#01A8E7" d="M2.296 37.889L32.148 37.889 32.148 3.444 2.296 3.444z" transform="translate(40.571 32.286)"/>
            <path fill="#70D7D9" d="M17.796 39.037c.951 0 1.722.772 1.722 1.722 0 .952-.77 1.722-1.722 1.722-.95 0-1.722-.77-1.722-1.722 0-.95.772-1.722 1.722-1.722zM21.3 1.148c.284 0 .514.257.514.574 0 .317-.23.574-.514.574h-8.157c-.284 0-.515-.257-.515-.574 0-.317.231-.574.515-.574h8.157z" transform="translate(40.571 32.286)"/>
        </g>
    </g>
</svg>
