<svg xmlns="http://www.w3.org/2000/svg" width="128" height="128" viewBox="0 0 128 128">
    <defs>
        <linearGradient id="prefix__a" x1="0%" x2="100%" y1="27.348%" y2="72.652%">
            <stop offset="0%" stop-color="#9BD0F2"/>
            <stop offset="100%" stop-color="#62A3E1"/>
        </linearGradient>
    </defs>
    <g fill="none" fill-rule="evenodd">
        <path fill="#FFF" fill-opacity="0" fill-rule="nonzero" d="M0 0H128V128H0z"/>
        <g transform="translate(5.714 18.286)">
            <path fill="#376BA8" d="M94.255 91.2L19.345 91.2 9.6 86.4 104 86.4z"/>
            <rect width="115.2" height="11.2" y="75.2" fill="#4D8DD8" rx="5.6"/>
            <path fill="#225FA6" d="M108.8 75.2H6.4V4.798C6.4 2.149 8.54 0 11.182 0h92.836c2.64 0 4.782 2.15 4.782 4.798V75.2z"/>
            <path fill="#13315F" d="M104.018 0H11.182C8.54 0 6.4 2.39 6.4 5.333V8c0-2.944 2.14-5.333 4.782-5.333h92.836c2.64 0 4.782 2.389 4.782 5.333V5.333C108.8 2.39 106.658 0 104.018 0" opacity=".34"/>
            <path fill="url(#prefix__a)" d="M16 65.6L99.2 65.6 99.2 9.6 16 9.6z"/>
            <path fill="#70D7D9" d="M68.373 81.6H48.429c-1.122 0-2.029-.717-2.029-1.6 0-.883.907-1.6 2.03-1.6h19.943c1.12 0 2.027.717 2.027 1.6 0 .883-.907 1.6-2.027 1.6"/>
            <path fill="#FFF" d="M70.588 22.857L70.588 27.806 77.416 27.806 64.052 41.408 51.22 28.34 30.857 49.071 34.295 52.571 51.22 35.337 64.052 48.405 80.854 31.306 80.854 38.257 85.714 38.257 85.714 22.857z"/>
        </g>
    </g>
</svg>
