<svg xmlns="http://www.w3.org/2000/svg" xmlns:xlink="http://www.w3.org/1999/xlink" viewBox="0 0 1476.21 446.6"><defs><style>.cls-1{fill:none;}.cls-2{fill:#fff;}.cls-3{clip-path:url(#clip-path);}</style><clipPath id="clip-path" transform="translate(11.07 95.86)"><path class="cls-1" d="M171,185a48.29,48.29,0,0,1-8.19,16c-10.7-39.72-29.53-60.42-38.69-68.54,7.77-.23,21.27,2.16,36.2,17.23C171,160.37,174.54,172.25,171,185Zm-52.5-48.55a114.36,114.36,0,0,0-1.28,18.2v3.53c-.07,13.36-.24,48.84,12.64,61.68a15.13,15.13,0,0,0,11.33,4.68h.36c.51.07,12.56,1.64,15.69-16.86C155.68,201.64,143.23,156.31,118.51,136.41Zm-19-.52c-6.54-2-31.88-7.06-69.73,17.62C10.66,166,1,180.09,1.92,194.34c.81,12.84,10.61,25.2,26.26,33.15,6.16-3.89,45.5-30.62,71.34-91.6Zm-7.85,99,.07-.13v.06Zm12.43-91.53a227.44,227.44,0,0,1-42.82,68.52,177,177,0,0,1-25.76,23.64c1.66,5.52,9,26.24,25.26,26.24,19.1,0,30.75-26.56,30.87-26.82v-.11h0c1-2,22.59-49.79,12.46-91.45Zm67.34-77.54a26,26,0,0,0-7.49-13.22,131.93,131.93,0,0,1-8.51,22.09,138.2,138.2,0,0,1-35,45.37c8.53,1.69,26.71,1.59,42.76-23.1,7.49-11.51,10.25-22,8.25-31.12ZM143.76,23.28a15.25,15.25,0,0,0-11.67,4c-14,12.37-15.82,48.22-16.51,61.71l-.13,2.48a175,175,0,0,0,.7,23.35c31.06-25.58,41.6-63.27,42.87-68.21-1.77-21.31-14.74-23.24-15.25-23.31Zm-39.08,67.9C103.78,41.37,87.56,6.69,62.35.67a18.72,18.72,0,0,0-14.78,2.1C39,8.11,34.9,19.77,33.63,24.14,62,41.71,79.88,64.91,89.91,81.33a171.13,171.13,0,0,1,13,25.88A70.2,70.2,0,0,0,104.68,91.18ZM26.86,31.54C9.75,38.54.21,50.46,0,65.1-.13,74,3.19,83.1,9.6,91.39c6.71,8.74,16.33,15.94,27.81,20.85,35.88,15.31,56.13,5.89,61.1,3C76.12,60.18,33.23,35,26.83,31.54Z"/></clipPath></defs><g id="katman_2" data-name="katman 2"><g id="katman_1-2" data-name="katman 1"><g id="nav-logo"><path id="Path_4819" data-name="Path 4819" class="cls-2" d="M835.4,72.1A14.26,14.26,0,0,0,811.08,62a12.72,12.72,0,0,0-3.69,6.18,16,16,0,0,0-.46,3.89,13.81,13.81,0,0,0,4.15,10.09,14.32,14.32,0,0,0,20.17,0A13.7,13.7,0,0,0,835.4,72.1" transform="translate(11.07 95.86)"/><path id="Path_4820" data-name="Path 4820" class="cls-2" d="M1155.9,126.6l-1.24-.42c10.16-5.09,16.52-16.1,16.52-29.66,0-23.09-18-38.76-43.43-38.76h-73.07a2.83,2.83,0,0,0-2.82,2.82h0V203.21a2.83,2.83,0,0,0,2.82,2.83h69.83c35,0,53.38-15,53.38-44.49,0-16.73-8.47-29.65-22-35m-76.66-47.4h43.32c15.59,0,24.1,4.44,24.1,17,0,14.34-8.11,21.51-24.1,21.8h-43.31a2.82,2.82,0,0,1-2.82-2.82h0V82a2.83,2.83,0,0,1,2.82-2.82h0m43.91,105.34h-43.93a2.82,2.82,0,0,1-2.82-2.82h0V142.33a2.83,2.83,0,0,1,2.83-2.82h44.33c20.93.28,29.88,6.16,29.88,22.74,0,14.38-9.14,22.29-30.28,22.29" transform="translate(11.07 95.86)"/><path id="Path_4821" data-name="Path 4821" class="cls-2" d="M1310,59.27,1261.27,152a2.82,2.82,0,0,1-3.8,1.2,2.89,2.89,0,0,1-1.2-1.2l-48.76-92.74a2.81,2.81,0,0,0-2.49-1.5h-23.57a2.12,2.12,0,0,0-1.86,3.12l76.76,143.67a2.81,2.81,0,0,0,5,0l76.74-143.68a2.12,2.12,0,0,0-1.87-3.11h-23.73a2.82,2.82,0,0,0-2.5,1.51" transform="translate(11.07 95.86)"/><path id="Path_4822" data-name="Path 4822" class="cls-2" d="M1002.55,126.6l-1.25-.42c10.17-5.09,16.53-16.1,16.53-29.66,0-23.09-18-38.76-43.43-38.76h-73a2.83,2.83,0,0,0-2.83,2.82V203.21A2.83,2.83,0,0,0,901.4,206h69.83c35,0,53.38-15,53.38-44.49,0-16.73-8.47-29.65-22-35M926,79.2h43.32c15.59,0,24.09,4.44,24.09,17,0,14.34-8.1,21.51-24.09,21.8H925.89a2.82,2.82,0,0,1-2.82-2.82h0V82a2.83,2.83,0,0,1,2.82-2.82h0M969.8,184.54H925.86a2.82,2.82,0,0,1-2.82-2.82h0V142.33a2.83,2.83,0,0,1,2.82-2.82H970.2c20.93.28,29.88,6.16,29.88,22.74,0,14.38-9.15,22.29-30.28,22.29" transform="translate(11.07 95.86)"/><path id="Path_4823" data-name="Path 4823" class="cls-2" d="M1334.48,183l48.72-92.75a2.83,2.83,0,0,1,3.81-1.19,2.74,2.74,0,0,1,1.19,1.19L1437,183a2.82,2.82,0,0,0,2.5,1.51H1463a2.12,2.12,0,0,0,2.12-2.12,2.06,2.06,0,0,0-.25-1L1388.12,37.77a2.83,2.83,0,0,0-5,0l-76.74,143.65a2.12,2.12,0,0,0,.87,2.87,2.06,2.06,0,0,0,1,.25H1332a2.81,2.81,0,0,0,2.5-1.51" transform="translate(11.07 95.86)"/><path id="Path_4824" data-name="Path 4824" class="cls-2" d="M836.52,206.25c-1.75-3.38-2-14.12-2-27.64V119.77c0-12.31,1.2-23.41-10.49-23.41-3.78,0-11.11,2.7-19.76,7.27,4.51,3,6.25,9,6.25,22v53.14c0,15.36-.07,23.85-2,27.44Z" transform="translate(11.07 95.86)"/><path id="Path_4825" data-name="Path 4825" class="cls-2" d="M768.21,208.46c-11.09,0-19-3.43-24-10.08-3.43-4.64-5.25-13.12-5.25-25.21V113.25H722.22v-13.1l16.74-2,1.82-26L763,70.54V98.38H790.4V113.3H763V174c0,11.5,4.84,17.15,14.13,17.15a38.26,38.26,0,0,0,18-4.64l2,14.12c-10.08,5.25-19.77,7.86-28.84,7.86" transform="translate(11.07 95.86)"/><path id="Path_4826" data-name="Path 4826" class="cls-2" d="M409.16,183.65c-6.06,4.84-13.32,8.07-21.19,8.07-10.89,0-17.75-4.64-17.75-16.13,0-17,15.93-28.25,38.94-22.2Zm26.21,22.6c-1.6-6-2-16.34-2-24.81v-46.2c0-30-13.51-39.73-42.57-39.73-11.49,0-20.77,2.42-31.26,7.06l-2.86,15.13c9.89-5.25,21.58-7.47,32.87-7.47,20.58,0,19.58,16.14,19.58,31.67-28.25-8.67-64.16,2.23-63.35,36.71.41,19.57,14.73,29.86,32.68,30.26,12.3.2,22.59-4.64,31.07-13.32l1.81,10.7Z" transform="translate(11.07 95.86)"/><path id="Path_4827" data-name="Path 4827" class="cls-2" d="M683.55,206.25c.87-2.18.9-7.28,1-13.09.06-4.47.06-9.84.06-16.16V134.64c0-14.52-4.43-21.18-15.13-21.18-8.27,0-18,5.85-25.61,12.71v53.24c0,6.11.1,11.74.33,16.4a71.6,71.6,0,0,0,1.07,10.44H618.84c1-4.44,1.21-13.31,1.21-26v-55.1c0-13.5-2.18-19-6.25-21.57,9.4-4.72,15.17-7.07,19.46-7.07,7.81,0,9.58,6.89,9.78,15.54,9.29-9.48,22.4-16.75,34.7-16.75,12.1,0,21,4.24,26.42,12.91a26.12,26.12,0,0,1,2.89,7.77A84.84,84.84,0,0,1,708.61,134v45c0,17.8.76,25.24,1.61,27.23Z" transform="translate(11.07 95.86)"/><path id="Path_4828" data-name="Path 4828" class="cls-2" d="M509.56,114.47a57.1,57.1,0,0,0-6-.2c-7.67,0-15.33,4-22.79,12.5V181c0,15.94.62,23.38,1.4,25.22H455.68a40.46,40.46,0,0,0,.82-6.1c.39-5.14.39-11.75.39-18.92V125.16c0-12.31-2-19.11-6.29-21.58,7.58-4,14.79-7.07,19.43-7.07,8.07,0,9.65,7.47,9.65,15.74,7.47-11.3,16.75-17,27.44-17a27.35,27.35,0,0,1,5.85.61Z" transform="translate(11.07 95.86)"/><path id="Path_4829" data-name="Path 4829" class="cls-2" d="M598.86,206.25c-1.79-3.94-2-16.34-2-24.81v-46.2c0-30-13.4-39.74-42.45-39.74-11.5,0-20.9,2.31-31.39,7l-2.82,15.25A59.9,59.9,0,0,1,532,113.06a78.45,78.45,0,0,1,21.06-2.78c20.6,0,19.6,16.09,19.6,31.61-28.23-8.66-64.14,2.23-63.33,36.72.4,19.57,14.72,29.85,32.68,30.26,12.3.2,22.71-4.64,31.18-13.32a67.73,67.73,0,0,0,1.7,10.7Zm-26.18-22.6c-6,4.84-13.3,8.07-21.17,8.07-11,.05-17.83-4.64-17.83-16.13,0-17,16-28.24,39-22.2Z" transform="translate(11.07 95.86)"/><path id="Path_4830" data-name="Path 4830" class="cls-2" d="M322,74.53a101.07,101.07,0,0,0-37.72-7.26c-16.54,0-29.5,5.85-40.4,17.14-10.89,11.5-16.33,26.22-16.33,44,0,19.36,4.84,34.89,14.72,46.18,9.69,11.29,22.44,17.18,39.79,17.18,9.08,0,16.54-1.21,22.79-3.63V150c0-2.62,0-5-.13-7.26H284.33a99.43,99.43,0,0,0-2.22-17.94l49.54,1.69c-1.82,5.85-2,13-2,25.33v19.57c0,13.71.81,23,2,27.64-17.15,7.05-34.3,10.69-51.64,10.69-25.62,0-45.39-7.07-59.71-21.19-14.12-14.11-22.32-33-22.32-57.22,0-24.42,8.8-44.44,24.54-60q23.31-23,61.73-23c22,0,29.86,2.81,41.57,6.84L322,74.51" transform="translate(11.07 95.86)"/><path id="Path_4838" data-name="Path 4838" class="cls-2" d="M171,185a48.29,48.29,0,0,1-8.19,16c-10.7-39.72-29.53-60.42-38.69-68.54,7.77-.23,21.27,2.16,36.2,17.23C171,160.37,174.54,172.25,171,185Zm-52.5-48.55a114.36,114.36,0,0,0-1.28,18.2v3.53c-.07,13.36-.24,48.84,12.64,61.68a15.13,15.13,0,0,0,11.33,4.68h.36c.51.07,12.56,1.64,15.69-16.86C155.68,201.64,143.23,156.31,118.51,136.41Zm-19-.52c-6.54-2-31.88-7.06-69.73,17.62C10.66,166,1,180.09,1.92,194.34c.81,12.84,10.61,25.2,26.26,33.15,6.16-3.89,45.5-30.62,71.34-91.6Zm-7.85,99,.07-.13v.06Zm12.43-91.53a227.44,227.44,0,0,1-42.82,68.52,177,177,0,0,1-25.76,23.64c1.66,5.52,9,26.24,25.26,26.24,19.1,0,30.75-26.56,30.87-26.82v-.11h0c1-2,22.59-49.79,12.46-91.45Zm67.34-77.54a26,26,0,0,0-7.49-13.22,131.93,131.93,0,0,1-8.51,22.09,138.2,138.2,0,0,1-35,45.37c8.53,1.69,26.71,1.59,42.76-23.1,7.49-11.51,10.25-22,8.25-31.12ZM143.76,23.28a15.25,15.25,0,0,0-11.67,4c-14,12.37-15.82,48.22-16.51,61.71l-.13,2.48a175,175,0,0,0,.7,23.35c31.06-25.58,41.6-63.27,42.87-68.21-1.77-21.31-14.74-23.24-15.25-23.31Zm-39.08,67.9C103.78,41.37,87.56,6.69,62.35.67a18.72,18.72,0,0,0-14.78,2.1C39,8.11,34.9,19.77,33.63,24.14,62,41.71,79.88,64.91,89.91,81.33a171.13,171.13,0,0,1,13,25.88A70.2,70.2,0,0,0,104.68,91.18ZM26.86,31.54C9.75,38.54.21,50.46,0,65.1-.13,74,3.19,83.1,9.6,91.39c6.71,8.74,16.33,15.94,27.81,20.85,35.88,15.31,56.13,5.89,61.1,3C76.12,60.18,33.23,35,26.83,31.54Z" transform="translate(11.07 95.86)"/><g class="cls-3"><g id="Group_163293" data-name="Group 163293"><path id="Path_4839" data-name="Path 4839" class="cls-2" d="M106.68,347.16C171.58,347.7,224.11,249,224,126.64s-52.82-222-117.72-222.5S-11.18,2.33-11.07,124.66,41.75,346.61,106.68,347.16Z" transform="translate(11.07 95.86)"/></g></g></g><path class="cls-2" d="M691.87,309l-6.94,21H676l22.71-66.84h10.41L731.93,330h-9.22l-7.14-21Zm21.91-6.74L707.24,283c-1.49-4.37-2.48-8.33-3.47-12.2h-.2c-1,4-2.08,8-3.37,12.1l-6.55,19.34Z" transform="translate(11.07 95.86)"/><path class="cls-2" d="M739.37,321.09a22.94,22.94,0,0,0,11.51,3.47c6.34,0,9.32-3.17,9.32-7.14,0-4.17-2.48-6.45-8.93-8.83-8.62-3.07-12.69-7.83-12.69-13.58,0-7.74,6.25-14.09,16.56-14.09a23.89,23.89,0,0,1,11.8,3l-2.18,6.35a18.65,18.65,0,0,0-9.82-2.78c-5.15,0-8,3-8,6.54,0,4,2.88,5.76,9.12,8.14,8.34,3.17,12.6,7.33,12.6,14.47,0,8.43-6.55,14.38-18,14.38a27.3,27.3,0,0,1-13.49-3.27Z" transform="translate(11.07 95.86)"/><path class="cls-2" d="M777.75,321.09a23,23,0,0,0,11.51,3.47c6.35,0,9.32-3.17,9.32-7.14,0-4.17-2.48-6.45-8.92-8.83C781,305.52,777,300.76,777,295c0-7.74,6.25-14.09,16.56-14.09a24,24,0,0,1,11.81,3l-2.19,6.35a18.65,18.65,0,0,0-9.82-2.78c-5.15,0-8,3-8,6.54,0,4,2.88,5.76,9.13,8.14,8.33,3.17,12.59,7.33,12.59,14.47,0,8.43-6.54,14.38-18,14.38a27.3,27.3,0,0,1-13.49-3.27Z" transform="translate(11.07 95.86)"/><path class="cls-2" d="M822.38,307.6c.2,11.8,7.74,16.66,16.47,16.66a31.55,31.55,0,0,0,13.29-2.48l1.48,6.25c-3.07,1.39-8.33,3-16,3-14.78,0-23.61-9.71-23.61-24.19s8.53-25.89,22.52-25.89c15.67,0,19.83,13.79,19.83,22.61a32.6,32.6,0,0,1-.3,4.07ZM848,301.35c.1-5.55-2.28-14.18-12.1-14.18-8.82,0-12.69,8.13-13.39,14.18Z" transform="translate(11.07 95.86)"/><path class="cls-2" d="M877.72,268.23V282h12.5v6.65h-12.5v25.88c0,5.95,1.69,9.32,6.55,9.32a19.37,19.37,0,0,0,5.06-.59l.39,6.55A21.44,21.44,0,0,1,882,331c-4.07,0-7.34-1.28-9.42-3.66-2.48-2.58-3.37-6.85-3.37-12.5V288.66h-7.44V282h7.44v-11.5Z" transform="translate(11.07 95.86)"/><path class="cls-2" d="M977.69,300.66c-.49-9.32-1.09-20.53-1-28.86h-.3c-2.28,7.83-5.06,16.17-8.43,25.39l-11.8,32.43h-6.54l-10.81-31.84c-3.18-9.42-5.86-18-7.74-26h-.2c-.2,8.33-.69,19.54-1.29,29.55L927.81,330h-8.23l4.66-66.84h11l11.4,32.33c2.78,8.23,5.06,15.57,6.74,22.51h.3c1.69-6.74,4.07-14.08,7-22.51l11.9-32.33h11L987.81,330h-8.43Z" transform="translate(11.07 95.86)"/><path class="cls-2" d="M1027.38,330l-.69-6.05h-.3a17.89,17.89,0,0,1-14.68,7.14c-9.72,0-14.68-6.84-14.68-13.78,0-11.6,10.32-17.95,28.86-17.85v-1c0-4-1.09-11.11-10.91-11.11a23.91,23.91,0,0,0-12.49,3.57l-2-5.75a29.79,29.79,0,0,1,15.77-4.27c14.68,0,18.25,10,18.25,19.64v17.95a68,68,0,0,0,.79,11.5Zm-1.29-24.49c-9.52-.2-20.33,1.49-20.33,10.81,0,5.65,3.77,8.33,8.23,8.33a11.93,11.93,0,0,0,11.6-8,9,9,0,0,0,.5-2.77Z" transform="translate(11.07 95.86)"/><path class="cls-2" d="M1048.6,295c0-5-.09-9-.39-13h7.73l.5,7.94h.2a17.65,17.65,0,0,1,15.87-9c6.64,0,17,4,17,20.43V330h-8.72V302.35c0-7.74-2.88-14.19-11.11-14.19a12.82,12.82,0,0,0-12.3,13V330h-8.73Z" transform="translate(11.07 95.86)"/><path class="cls-2" d="M1130.23,330l-.7-6.05h-.3a17.85,17.85,0,0,1-14.67,7.14c-9.72,0-14.68-6.84-14.68-13.78,0-11.6,10.31-17.95,28.86-17.85v-1c0-4-1.09-11.11-10.91-11.11a24,24,0,0,0-12.5,3.57l-2-5.75a29.79,29.79,0,0,1,15.77-4.27c14.68,0,18.25,10,18.25,19.64v17.95a67,67,0,0,0,.79,11.5Zm-1.29-24.49c-9.52-.2-20.33,1.49-20.33,10.81,0,5.65,3.76,8.33,8.23,8.33a12,12,0,0,0,11.6-8,9,9,0,0,0,.5-2.77Z" transform="translate(11.07 95.86)"/><path class="cls-2" d="M1192.8,282c-.19,3.48-.39,7.34-.39,13.19v27.87c0,11-2.18,17.75-6.84,21.92-4.67,4.36-11.41,5.75-17.46,5.75-5.75,0-12.1-1.39-16-4l2.19-6.64a27.08,27.08,0,0,0,14.08,3.77c8.92,0,15.47-4.66,15.47-16.76v-5.36h-.2c-2.68,4.46-7.83,8-15.27,8-11.9,0-20.43-10.12-20.43-23.41,0-16.26,10.61-25.49,21.62-25.49,8.33,0,12.89,4.37,15,8.33h.2l.4-7.24Zm-9,18.95a12.34,12.34,0,0,0-.5-4c-1.58-5.06-5.85-9.22-12.19-9.22-8.33,0-14.28,7-14.28,18.14,0,9.43,4.76,17.26,14.18,17.26a12.77,12.77,0,0,0,12.1-8.92,15.41,15.41,0,0,0,.69-4.67Z" transform="translate(11.07 95.86)"/><path class="cls-2" d="M1209.87,307.6c.19,11.8,7.73,16.66,16.46,16.66a31.59,31.59,0,0,0,13.29-2.48l1.48,6.25c-3.07,1.39-8.33,3-16,3-14.78,0-23.61-9.71-23.61-24.19s8.53-25.89,22.52-25.89c15.67,0,19.83,13.79,19.83,22.61a32.6,32.6,0,0,1-.3,4.07Zm25.58-6.25c.1-5.55-2.28-14.18-12.1-14.18-8.82,0-12.69,8.13-13.39,14.18Z" transform="translate(11.07 95.86)"/><path class="cls-2" d="M1254.69,295c0-5-.1-9-.39-13h7.63l.4,7.74h.3c2.67-4.56,7.14-8.83,15.07-8.83a14.2,14.2,0,0,1,13.59,9.62h.2a19.68,19.68,0,0,1,5.35-6.24,16.35,16.35,0,0,1,10.61-3.38c6.35,0,15.77,4.17,15.77,20.83V330h-8.53V302.84c0-9.22-3.37-14.78-10.41-14.78-5,0-8.83,3.67-10.32,7.94a14.54,14.54,0,0,0-.69,4.36V330h-8.53V301.25c0-7.63-3.37-13.19-10-13.19-5.45,0-9.42,4.37-10.8,8.73a12,12,0,0,0-.7,4.27V330h-8.53Z" transform="translate(11.07 95.86)"/><path class="cls-2" d="M1342.27,307.6c.2,11.8,7.73,16.66,16.46,16.66a31.52,31.52,0,0,0,13.29-2.48l1.49,6.25c-3.08,1.39-8.33,3-16,3-14.78,0-23.6-9.71-23.6-24.19s8.53-25.89,22.51-25.89c15.67,0,19.83,13.79,19.83,22.61a32.6,32.6,0,0,1-.3,4.07Zm25.58-6.25c.1-5.55-2.28-14.18-12.1-14.18-8.82,0-12.69,8.13-13.38,14.18Z" transform="translate(11.07 95.86)"/><path class="cls-2" d="M1387.09,295c0-5-.1-9-.39-13h7.73l.5,7.94h.2a17.65,17.65,0,0,1,15.86-9c6.65,0,17,4,17,20.43V330h-8.72V302.35c0-7.74-2.88-14.19-11.11-14.19a12.82,12.82,0,0,0-12.3,13V330h-8.73Z" transform="translate(11.07 95.86)"/><path class="cls-2" d="M1452.65,268.23V282h12.49v6.65h-12.49v25.88c0,5.95,1.69,9.32,6.54,9.32a19.31,19.31,0,0,0,5.06-.59l.4,6.55a21.5,21.5,0,0,1-7.74,1.18c-4.06,0-7.33-1.28-9.42-3.66-2.48-2.58-3.37-6.85-3.37-12.5V288.66h-7.44V282h7.44v-11.5Z" transform="translate(11.07 95.86)"/></g></g></svg>