<svg xmlns="http://www.w3.org/2000/svg" width="869" height="157" viewBox="0 0 869 157">
    <path fill="#FFF" d="M61.761 86.016c6.01 24.708-6.804 53.048-7.355 54.245l-.005.007-.025.061c-.069.158-6.979 15.908-18.308 15.908-9.665 0-13.996-12.287-14.979-15.563 2.056-1.49 8.048-6.098 15.275-14.018 7.517-8.237 17.935-21.907 25.397-40.64zm-44.073 6.007c22.447-14.635 37.476-11.627 41.353-10.447-15.319 36.167-38.654 52.017-42.302 54.328-9.28-4.716-15.095-12.05-15.573-19.666-.528-8.449 5.185-16.822 16.522-24.215zm52.62-10.139c14.661 11.802 22.04 38.688 22.968 42.26-1.855 10.972-9 10.045-9.304 10l-.066-.008-.148-.007c-2.63.02-4.828-.887-6.721-2.775-7.639-7.617-7.534-28.66-7.494-36.583l.004-2.09c-.037-4.739.411-8.562.761-10.797zm98.286-52.258c13.025 0 17.714 1.664 24.655 4.054l-2.283 11.5c-7.181-2.874-14.717-4.308-22.372-4.308-9.81 0-17.495 3.47-23.956 10.166-6.46 6.825-9.69 15.555-9.69 26.084 0 11.482 2.87 20.694 8.734 27.393 5.744 6.704 13.305 10.168 23.595 10.168 5.385 0 9.81-.715 13.518-2.15V89.925c0-1.556-.025-2.983-.074-4.309h-12.08c-.168-4.006-.692-8.205-1.315-10.646l29.382 1.005c-1.052 3.377-1.19 7.5-1.197 14.45V102.6c0 8.135.477 13.64 1.197 16.393-10.171 4.186-20.34 6.34-30.628 6.34-15.196 0-26.92-4.189-35.412-12.564-8.374-8.372-13.238-19.587-13.238-33.94 0-14.48 5.222-26.353 14.553-35.566 9.214-9.093 21.415-13.638 36.61-13.638zM328.817 57.62c17.23 0 25.176 5.744 25.176 23.568v27.76c.007 5.007.16 12.07 1.195 14.351H340.95c-.688-2.28-1.005-6.34-1.005-6.34-5.025 5.144-11.2 8.013-18.494 7.895-10.65-.24-19.144-6.34-19.38-17.945-.483-20.453 20.813-26.915 37.562-21.776 0-9.21.6-18.78-11.604-18.78-4.177 0-8.447.51-12.488 1.65-2.444.688-4.805 1.607-7.012 2.778l1.673-9.044c6.224-2.75 11.798-4.117 18.615-4.117zm-97.032.002c17.23 0 25.246 5.743 25.246 23.568v27.399c0 5.02.24 11.123 1.194 14.712H243.99l-1.078-6.343c-5.025 5.147-11.127 8.016-18.424 7.895-10.648-.238-19.14-6.34-19.38-17.943-.48-20.454 20.814-26.918 37.567-21.775 0-9.21.596-18.78-11.607-18.78-6.699 0-13.635 1.317-19.5 4.427l1.674-8.971c6.221-2.753 11.723-4.19 18.543-4.19zm220.728-14.837v16.512h16.274v8.85h-16.274v36.01c0 6.82 2.87 10.171 8.38 10.171 3.465 0 6.933-.838 10.643-2.754l1.196 8.38c-5.98 3.11-11.728 4.661-17.107 4.661-6.58 0-11.247-2.034-14.237-5.983-2.034-2.749-3.11-7.778-3.11-14.954V68.146h-9.929v-7.772l9.93-1.198 1.075-15.434 13.16-.957zm-50.547 14.716c7.18 0 12.447 2.513 15.673 7.654.721 1.204 1.291 2.734 1.71 4.609.627 2.792.927 6.345.927 10.709v26.678c0 10.555.45 14.973.954 16.15h-15.814c.513-1.291.531-4.317.583-7.764.033-2.155.039-4.66.04-7.536V80.83c0-8.613-2.633-12.563-8.977-12.563-4.902 0-10.646 3.47-15.189 7.538v31.58c0 3.62.058 6.96.194 9.725.14 2.72.341 4.88.64 6.19h-15.672c.582-2.572.711-7.64.717-14.887V75.206c0-8.011-1.29-11.246-3.703-12.798 5.574-2.8 8.992-4.19 11.537-4.19 4.631 0 5.682 4.083 5.803 9.216 5.506-5.623 13.282-9.933 20.577-9.933zm86.75.6c6.936 0 6.226 6.58 6.226 13.879v35.4c.007 7.794.18 13.957 1.2 15.92h-16.64c1.117-2.047 1.199-6.788 1.203-15.257V75.446c0-7.698-1.028-11.258-3.705-13.038 5.13-2.708 9.476-4.307 11.716-4.307zm-187.929-.602c1.196 0 2.392.12 3.473.363l-2.039 11.007c-1.073-.121-2.148-.121-3.587-.121-4.545 0-9.091 2.395-13.516 7.418v32.18c0 9.449.368 13.865.833 14.954h-15.668c.224-.986.381-2.207.486-3.618.215-2.876.227-6.535.228-10.515v-33.96c0-7.3-1.198-11.332-3.727-12.8 4.492-2.356 8.766-4.188 11.522-4.188 4.785 0 5.723 4.426 5.723 9.333 4.43-6.701 9.932-10.053 16.272-10.053zm413.901-22.264c.62 0 1.192.343 1.481.894l28.92 55.008c.63 1.19 2.334 1.19 2.963-.002l28.894-55.006c.291-.55.86-.894 1.48-.894h14.077c.95 0 1.557 1.013 1.106 1.848l-45.527 85.208c-.632 1.179-2.322 1.179-2.95 0l-45.526-85.208c-.45-.838.156-1.848 1.107-1.848zm-45.824-.001c15.077 0 25.756 9.297 25.756 22.99 0 8.042-3.771 14.573-9.8 17.588l.738.25c8.04 3.142 13.065 10.804 13.065 20.73 0 17.462-10.93 26.383-31.658 26.383h-41.416c-.923 0-1.673-.751-1.673-1.676v-84.59c0-.925.75-1.675 1.673-1.675zm-90.949 0c15.073 0 25.752 9.297 25.752 22.99 0 8.042-3.77 14.573-9.799 17.588l.74.25c8.04 3.142 13.065 10.804 13.065 20.73 0 17.462-10.93 26.383-31.66 26.383H534.6c-.926 0-1.676-.751-1.676-1.676v-84.59c0-.925.75-1.675 1.676-1.675zM95.11 89.74c6.297 6.354 8.428 13.398 6.336 20.938-1.149 4.134-3.338 7.505-4.86 9.494-6.344-23.558-17.511-35.833-22.945-40.65 4.606-.136 12.613 1.282 21.469 10.218zm244.524 2.212c-13.637-3.587-23.086 3.111-23.086 13.161 0 6.818 4.065 9.571 10.527 9.571 4.666 0 8.973-1.915 12.559-4.788zm-96.958 0c-13.644-3.59-23.094 3.11-23.094 13.162 0 6.819 4.07 9.57 10.53 9.57 4.667 0 8.975-1.913 12.564-4.786zm577.66-68.586c.63-1.178 2.319-1.178 2.95 0l45.524 85.208c.45.838-.157 1.85-1.107 1.85h-13.975c-.62 0-1.19-.344-1.481-.893l-28.92-55.008c-.63-1.192-2.332-1.192-2.961 0l-28.896 55.006c-.29.551-.86.895-1.481.895h-14.074c-.95 0-1.556-1.014-1.106-1.85zm-244.916 60.35h-26.292c-.925 0-1.674.752-1.674 1.675v23.36c0 .925.751 1.673 1.674 1.673h26.055c12.537 0 17.962-4.69 17.962-13.22 0-9.835-5.307-13.321-17.725-13.487zm90.953 0H640.08c-.927 0-1.677.752-1.677 1.675l.002 23.36c0 .925.748 1.673 1.675 1.673h26.052c12.539 0 17.963-4.69 17.963-13.22 0-9.835-5.307-13.321-17.723-13.487zM15.93 19.684c3.8 2.081 29.237 16.99 42.496 49.613-2.947 1.745-14.959 7.332-36.233-1.75-6.81-2.907-12.514-7.18-16.496-12.362C1.896 50.237-.074 44.846.002 39.59c.125-8.68 5.781-15.743 15.928-19.907zM97.257 32.19c1.5 1.43 3.607 4.02 4.443 7.837 1.186 5.416-.469 11.63-4.914 18.471-9.516 14.64-20.296 14.703-25.357 13.698 10.703-8.959 17.203-19.532 20.783-26.908 2.779-5.726 4.301-10.422 5.045-13.098zM665.785 47.95h-25.69c-.923 0-1.673.75-1.673 1.674v19.683c0 .926.75 1.676 1.673 1.676l25.69-.002c9.485-.173 14.29-4.425 14.29-12.931 0-7.465-5.045-10.1-14.29-10.1zm-90.953 0h-25.687c-.925 0-1.676.75-1.676 1.674l.003 19.683c0 .926.748 1.676 1.673 1.676l25.687-.002c9.488-.173 14.291-4.425 14.291-12.931 0-7.465-5.043-10.1-14.29-10.1zM78.367 17.18c2.022-1.789 4.287-2.568 6.923-2.383.298.04 7.994 1.185 9.048 13.852-.754 2.927-7.006 25.28-25.428 40.45-.274-3.063-.697-8.966-.415-13.849l.079-1.467c.408-8.004 1.495-29.263 9.793-36.603zM28.234 2.621c2.566-1.6 5.51-2.018 8.75-1.244 14.948 3.57 24.567 24.138 25.102 53.68.003.055.136 4.506-1.006 9.51-1.337-3.38-3.801-8.912-7.736-15.352-5.951-9.737-16.563-23.495-33.376-33.919.75-2.57 3.176-9.504 8.266-12.675zm458.796 32.68c2.343 0 4.34.705 5.984 2.464 1.645 1.52 2.46 3.515 2.46 5.977 0 2.348-.815 4.339-2.46 5.979-1.644 1.76-3.64 2.465-5.984 2.465-2.455 0-4.453-.822-5.977-2.465-1.638-1.64-2.464-3.631-2.464-5.98 0-.821.092-1.59.275-2.307.365-1.431 1.098-2.654 2.19-3.67 1.523-1.64 3.521-2.463 5.976-2.463z"/>
</svg>
