<?xml version="1.0" encoding="utf-8"?>
<!-- Generator: Adobe Illustrator 25.2.1, SVG Export Plug-In . SVG Version: 6.00 Build 0)  -->
<svg version="1.1" id="Layer_1" xmlns="http://www.w3.org/2000/svg" xmlns:xlink="http://www.w3.org/1999/xlink" x="0px" y="0px"
	 viewBox="0 0 128 128" style="enable-background:new 0 0 128 128;" xml:space="preserve">
<style type="text/css">
	.st0{fill:#FFFFFF;fill-opacity:0;}
	.st1{fill-rule:evenodd;clip-rule:evenodd;fill:#225FA6;}
	.st2{fill-rule:evenodd;clip-rule:evenodd;fill:url(#path-2_2_);}
	.st3{fill-rule:evenodd;clip-rule:evenodd;fill:#20C0C2;}
	.st4{fill-rule:evenodd;clip-rule:evenodd;fill:#0293DE;}
	.st5{fill-rule:evenodd;clip-rule:evenodd;fill:#FFFFFF;}
	.st6{opacity:0.23;fill-rule:evenodd;clip-rule:evenodd;fill:#FFFFFF;enable-background:new    ;}
</style>
<g id="Icon_x2F_128_x2F_Form-2">
	<rect id="Bound" class="st0" width="128" height="128"/>
	<path id="Mask" class="st1" d="M23,17h81c4.4,0,8,3.6,8,8v15l0,0H15V25C15,20.6,18.6,17,23,17z"/>
	<g id="Path-2" transform="translate(15.000000, 40.000000)">
		<g id="Mask_1_">
			
				<linearGradient id="path-2_2_" gradientUnits="userSpaceOnUse" x1="16.6783" y1="56.2375" x2="17.6783" y2="55.6555" gradientTransform="matrix(97 0 0 -74 -1617 4176)">
				<stop  offset="0" style="stop-color:#9BD0F2"/>
				<stop  offset="1" style="stop-color:#62A3E1"/>
			</linearGradient>
			<path id="path-2_1_" class="st2" d="M0,0h97v66c0,4.4-3.6,8-8,8H8c-4.4,0-8-3.6-8-8V0L0,0z"/>
		</g>
	</g>
	<path id="Combined-Shape" class="st3" d="M29.5,24c2.5,0,4.5,2,4.5,4.5S32,33,29.5,33C27,33,25,31,25,28.5S27,24,29.5,24z M42.5,24
		c2.5,0,4.5,2,4.5,4.5S45,33,42.5,33C40,33,38,31,38,28.5S40,24,42.5,24z M55.5,24c2.5,0,4.5,2,4.5,4.5S58,33,55.5,33
		C53,33,51,31,51,28.5S53,24,55.5,24z"/>
	<path id="Combined-Shape_1_" class="st4" d="M105,97v5H23v-5H105z M105,86v5H23v-5H105z M105,75v5H23v-5H105z M105,64v5H23v-5H105z
		"/>
	<polygon id="Fill-16" class="st5" points="23,58 55,58 55,53 23,53 	"/>
	<path id="Path" class="st6" d="M15,40h84l-41.5,73.5L23,114c-4.4,0-8-3.6-8-8V40z"/>
</g>
</svg>
