<svg xmlns="http://www.w3.org/2000/svg" xmlns:xlink="http://www.w3.org/1999/xlink" width="56" height="56" viewBox="0 0 56 56">
    <defs>
        <linearGradient id="prefix__b" x1="0%" x2="100%" y1="20.9%" y2="79.1%">
            <stop offset="0%" stop-color="#9BD0F2"/>
            <stop offset="100%" stop-color="#62A3E1"/>
        </linearGradient>
        <linearGradient id="prefix__c" x1="100%" x2="0%" y1="24.856%" y2="75.144%">
            <stop offset="0%" stop-color="#DCE8F2"/>
            <stop offset="100%" stop-color="#B7CDE1"/>
        </linearGradient>
        <path id="prefix__a" d="M0 0h42.438v28.375c0 2.21-1.791 4-4 4H4c-2.21 0-4-1.79-4-4V0z"/>
    </defs>
    <g fill="none" fill-rule="evenodd">
        <path fill="#FFF" fill-opacity="0" fill-rule="nonzero" d="M0 0H56V56H0z"/>
        <path fill="#225FA6" d="M10.563 7.438H45c2.21 0 4 1.79 4 4V17.5H6.562v-6.063c0-2.209 1.791-4 4-4z"/>
        <g transform="translate(6.563 17.5)">
            <mask id="prefix__d" fill="#fff">
                <use xlink:href="#prefix__a"/>
            </mask>
            <use fill="url(#prefix__b)" xlink:href="#prefix__a"/>
            <path fill="url(#prefix__c)" d="M3.039 28.962L39.439 28.962 39.439 3.15 3.039 3.15z" mask="url(#prefix__d)"/>
            <path fill="#0067A6" d="M10.161 22.972L8.996 21.808 18.472 12.334 24.35 18.212 32.922 9.639 34.087 10.803 24.35 20.54 18.472 14.662z" mask="url(#prefix__d)"/>
            <path fill="#4D8DD8" d="M9.579 20.249c1.183 0 2.14.958 2.14 2.141s-.957 2.141-2.14 2.141c-1.183 0-2.142-.958-2.142-2.141s.96-2.141 2.142-2.141zm14.515-3.031c1.182 0 2.141.958 2.141 2.141s-.959 2.141-2.141 2.141-2.141-.958-2.141-2.14c0-1.184.959-2.142 2.14-2.142zm-5.742-5.742c1.183 0 2.14.958 2.14 2.14 0 1.184-.957 2.142-2.14 2.142-1.182 0-2.141-.958-2.141-2.141s.959-2.141 2.14-2.141zm15.085-3.601c1.182 0 2.141.958 2.141 2.141s-.959 2.141-2.141 2.141c-1.183 0-2.142-.958-2.142-2.14 0-1.184.959-2.142 2.142-2.142z" mask="url(#prefix__d)"/>
        </g>
        <path fill="#20C0C2" d="M12.906 10.5c1.087 0 1.969.881 1.969 1.969 0 1.087-.882 1.969-1.97 1.969-1.086 0-1.967-.882-1.967-1.97 0-1.087.881-1.968 1.968-1.968zm5.687 0c1.088 0 1.97.881 1.97 1.969 0 1.087-.882 1.969-1.97 1.969-1.086 0-1.968-.882-1.968-1.97 0-1.087.882-1.968 1.968-1.968zm5.688 0c1.087 0 1.969.881 1.969 1.969 0 1.087-.882 1.969-1.97 1.969-1.086 0-1.968-.882-1.968-1.97 0-1.087.882-1.968 1.969-1.968z"/>
        <path fill="#FFF" d="M6.563 17.5h36.75L25.155 49.656l-15.093.219c-1.933 0-3.5-1.567-3.5-3.5V17.5z" opacity=".23"/>
    </g>
</svg>
